<svg width="800" height="800" viewBox="0 0 800 800" xmlns="http://www.w3.org/2000/svg">
  <circle cx="400" cy="400" r="400" fill="white"/>
  
  <!-- A geodesic/network structure — nodes connected by edges, 
       like a molecular graph or neural network. 
       Asymmetric, organic arrangement but geometric in nature. -->
  
  <g transform="translate(400,400)">
    
    <!-- Edges (drawn first, behind nodes) -->
    <g stroke="black" stroke-width="7" stroke-linecap="round">
      <!-- Core triangle -->
      <line x1="0" y1="-120" x2="-105" y2="60"/>
      <line x1="0" y1="-120" x2="105" y2="60"/>
      <line x1="-105" y1="60" x2="105" y2="60"/>
      
      <!-- Inner connections to center -->
      <line x1="0" y1="-120" x2="0" y2="-10"/>
      <line x1="-105" y1="60" x2="0" y2="-10"/>
      <line x1="105" y1="60" x2="0" y2="-10"/>
      
      <!-- Outer spokes — asymmetric, different lengths -->
      <!-- Top node branches -->
      <line x1="0" y1="-120" x2="-55" y2="-210"/>
      <line x1="0" y1="-120" x2="70" y2="-195"/>
      <line x1="-55" y1="-210" x2="70" y2="-195"/>
      
      <!-- Left node branches -->
      <line x1="-105" y1="60" x2="-200" y2="10"/>
      <line x1="-105" y1="60" x2="-185" y2="140"/>
      <line x1="-200" y1="10" x2="-185" y2="140"/>
      <line x1="-200" y1="10" x2="-55" y2="-210"/>
      
      <!-- Right node branches -->
      <line x1="105" y1="60" x2="205" y2="-10"/>
      <line x1="105" y1="60" x2="195" y2="145"/>
      <line x1="205" y1="-10" x2="195" y2="145"/>
      <line x1="205" y1="-10" x2="70" y2="-195"/>
      
      <!-- Bottom connections -->
      <line x1="-185" y1="140" x2="-80" y2="205"/>
      <line x1="195" y1="145" x2="85" y2="210"/>
      <line x1="-80" y1="205" x2="85" y2="210"/>
      <line x1="-105" y1="60" x2="-80" y2="205"/>
      <line x1="105" y1="60" x2="85" y2="210"/>
      <line x1="0" y1="-10" x2="-80" y2="205"/>
      <line x1="0" y1="-10" x2="85" y2="210"/>
      
      <!-- A few extra subtle long connections for complexity -->
      <line x1="-55" y1="-210" x2="-200" y2="10" stroke-width="5" opacity="0.5"/>
    </g>
    
    <!-- Nodes — varying sizes for depth/hierarchy -->
    <g fill="black">
      <!-- Core center -->
      <circle cx="0" cy="-10" r="16"/>
      
      <!-- Primary triangle -->
      <circle cx="0" cy="-120" r="18"/>
      <circle cx="-105" cy="60" r="18"/>
      <circle cx="105" cy="60" r="18"/>
      
      <!-- Outer nodes — slightly smaller -->
      <circle cx="-55" cy="-210" r="14"/>
      <circle cx="70" cy="-195" r="14"/>
      <circle cx="-200" cy="10" r="14"/>
      <circle cx="-185" cy="140" r="14"/>
      <circle cx="205" cy="-10" r="14"/>
      <circle cx="195" cy="145" r="14"/>
      
      <!-- Bottom nodes -->
      <circle cx="-80" cy="205" r="14"/>
      <circle cx="85" cy="210" r="14"/>
    </g>
    
  </g>
</svg>
