<svg width="500" height="580" viewBox="0 0 500 580" xmlns="http://www.w3.org/2000/svg">
  <defs>
    <linearGradient id="bg3" x1="0" y1="0" x2="0" y2="1">
      <stop offset="0%" stop-color="#070d1a"/>
      <stop offset="100%" stop-color="#03080f"/>
    </linearGradient>
    <clipPath id="hex3">
      <polygon points="250,30 455,145 455,375 250,490 45,375 45,145"/>
    </clipPath>
  </defs>

  <polygon points="250,30 455,145 455,375 250,490 45,375 45,145" fill="url(#bg3)"/>

  <g clip-path="url(#hex3)">

    <!-- Territory fills -->
    <ellipse cx="195" cy="272" rx="75" ry="60" fill="#854F0B" opacity="0.2"/>
    <ellipse cx="195" cy="272" rx="50" ry="40" fill="#BA7517" opacity="0.15"/>
    <ellipse cx="360" cy="295" rx="55" ry="44" fill="#854F0B" opacity="0.17"/>
    <ellipse cx="360" cy="295" rx="34" ry="27" fill="#BA7517" opacity="0.13"/>
    <ellipse cx="252" cy="340" rx="92" ry="50" fill="#0F6E56" opacity="0.18"/>
    <ellipse cx="252" cy="340" rx="60" ry="32" fill="#1D9E75" opacity="0.11"/>
    <ellipse cx="392" cy="198" rx="50" ry="40" fill="#3C3489" opacity="0.2"/>
    <ellipse cx="392" cy="198" rx="30" ry="23" fill="#7F77DD" opacity="0.14"/>
    <ellipse cx="115" cy="362" rx="58" ry="40" fill="#444441" opacity="0.22"/>
    <ellipse cx="115" cy="362" rx="34" ry="24" fill="#2C2C2A" opacity="0.18"/>
    <polygon points="45,145 455,145 455,195 340,210 280,190 200,205 120,195 45,200" fill="#0C447C" opacity="0.14"/>

    <!-- Vessels -->
    <path d="M45,222 Q110,212 155,237 Q200,260 255,250 Q310,240 370,257 Q420,270 455,260" fill="none" stroke="#185FA5" stroke-width="7" opacity="0.2" stroke-linecap="round"/>
    <path d="M45,222 Q110,212 155,237 Q200,260 255,250 Q310,240 370,257 Q420,270 455,260" fill="none" stroke="#378ADD" stroke-width="2.5" opacity="0.32" stroke-linecap="round"/>
    <path d="M140,392 Q185,377 220,392 Q260,410 300,397 Q340,382 390,402 Q430,417 455,407" fill="none" stroke="#185FA5" stroke-width="5" opacity="0.16" stroke-linecap="round"/>
    <path d="M140,392 Q185,377 220,392 Q260,410 300,397 Q340,382 390,402 Q430,417 455,407" fill="none" stroke="#378ADD" stroke-width="1.8" opacity="0.25" stroke-linecap="round"/>

    <!-- Region boundaries -->
    <path d="M45,200 Q120,195 200,205 Q280,190 340,210 Q400,198 455,208" fill="none" stroke="#B5D4F4" stroke-width="0.7" opacity="0.15" stroke-dasharray="6 4"/>
    <path d="M80,312 Q130,297 180,317 Q230,337 290,320 Q345,304 410,324 Q440,334 455,330" fill="none" stroke="#9FE1CB" stroke-width="0.7" opacity="0.13" stroke-dasharray="5 4"/>

    <!-- TUMOR CELLS (amber) nest 1 -->
    <circle cx="158" cy="250" r="5"   fill="#EF9F27" opacity="0.88"/>
    <circle cx="175" cy="242" r="4"   fill="#EF9F27" opacity="0.82"/>
    <circle cx="192" cy="248" r="5.5" fill="#EF9F27" opacity="0.9"/>
    <circle cx="210" cy="242" r="4"   fill="#EF9F27" opacity="0.8"/>
    <circle cx="225" cy="252" r="4.5" fill="#BA7517" opacity="0.85"/>
    <circle cx="168" cy="262" r="4.5" fill="#BA7517" opacity="0.82"/>
    <circle cx="185" cy="268" r="5"   fill="#EF9F27" opacity="0.88"/>
    <circle cx="203" cy="264" r="4"   fill="#EF9F27" opacity="0.82"/>
    <circle cx="220" cy="270" r="4.5" fill="#BA7517" opacity="0.8"/>
    <circle cx="162" cy="278" r="4"   fill="#EF9F27" opacity="0.78"/>
    <circle cx="178" cy="285" r="5"   fill="#EF9F27" opacity="0.88"/>
    <circle cx="196" cy="280" r="4.5" fill="#BA7517" opacity="0.82"/>
    <circle cx="213" cy="285" r="4"   fill="#EF9F27" opacity="0.8"/>
    <circle cx="228" cy="278" r="3.5" fill="#BA7517" opacity="0.72"/>
    <circle cx="170" cy="295" r="4"   fill="#BA7517" opacity="0.78"/>
    <circle cx="188" cy="298" r="4.5" fill="#EF9F27" opacity="0.82"/>
    <circle cx="206" cy="295" r="4"   fill="#EF9F27" opacity="0.78"/>
    <circle cx="222" cy="292" r="3.5" fill="#BA7517" opacity="0.7"/>
    <circle cx="148" cy="268" r="3.5" fill="#854F0B" opacity="0.7"/>
    <circle cx="235" cy="262" r="3.5" fill="#854F0B" opacity="0.68"/>
    <!-- nest 2 -->
    <circle cx="330" cy="272" r="4.5" fill="#EF9F27" opacity="0.85"/>
    <circle cx="347" cy="265" r="4"   fill="#EF9F27" opacity="0.8"/>
    <circle cx="363" cy="270" r="5"   fill="#EF9F27" opacity="0.88"/>
    <circle cx="378" cy="278" r="4"   fill="#BA7517" opacity="0.82"/>
    <circle cx="338" cy="282" r="4.5" fill="#BA7517" opacity="0.8"/>
    <circle cx="355" cy="282" r="4"   fill="#EF9F27" opacity="0.82"/>
    <circle cx="370" cy="290" r="4.5" fill="#EF9F27" opacity="0.85"/>
    <circle cx="385" cy="285" r="3.5" fill="#BA7517" opacity="0.72"/>
    <circle cx="344" cy="295" r="4"   fill="#BA7517" opacity="0.78"/>
    <circle cx="360" cy="300" r="4.5" fill="#EF9F27" opacity="0.82"/>
    <circle cx="375" cy="305" r="3.5" fill="#BA7517" opacity="0.72"/>
    <circle cx="322" cy="282" r="3.5" fill="#854F0B" opacity="0.68"/>
    <circle cx="392" cy="278" r="3.5" fill="#854F0B" opacity="0.65"/>

    <!-- CD8 T cells (teal) -->
    <circle cx="205" cy="318" r="4.5" fill="#1D9E75" opacity="0.92"/>
    <circle cx="220" cy="310" r="4"   fill="#1D9E75" opacity="0.88"/>
    <circle cx="236" cy="318" r="5"   fill="#1D9E75" opacity="0.92"/>
    <circle cx="252" cy="310" r="4"   fill="#1D9E75" opacity="0.85"/>
    <circle cx="268" cy="318" r="4.5" fill="#1D9E75" opacity="0.9"/>
    <circle cx="284" cy="312" r="4"   fill="#1D9E75" opacity="0.85"/>
    <circle cx="212" cy="330" r="4"   fill="#1D9E75" opacity="0.88"/>
    <circle cx="228" cy="336" r="4.5" fill="#1D9E75" opacity="0.9"/>
    <circle cx="244" cy="328" r="4"   fill="#1D9E75" opacity="0.85"/>
    <circle cx="260" cy="334" r="4.5" fill="#1D9E75" opacity="0.9"/>
    <circle cx="276" cy="326" r="4"   fill="#1D9E75" opacity="0.85"/>
    <circle cx="292" cy="330" r="3.5" fill="#1D9E75" opacity="0.78"/>
    <circle cx="218" cy="346" r="3.5" fill="#0F6E56" opacity="0.75"/>
    <circle cx="236" cy="350" r="4"   fill="#1D9E75" opacity="0.82"/>
    <circle cx="253" cy="348" r="4"   fill="#1D9E75" opacity="0.85"/>
    <circle cx="270" cy="345" r="3.5" fill="#0F6E56" opacity="0.75"/>
    <circle cx="286" cy="343" r="3.5" fill="#1D9E75" opacity="0.78"/>
    <circle cx="240" cy="302" r="3.5" fill="#1D9E75" opacity="0.75"/>
    <circle cx="255" cy="298" r="3"   fill="#1D9E75" opacity="0.7"/>
    <circle cx="198" cy="308" r="3"   fill="#1D9E75" opacity="0.7"/>
    <circle cx="300" cy="320" r="3"   fill="#1D9E75" opacity="0.68"/>

    <!-- CD4 T cells (pink) -->
    <circle cx="225" cy="322" r="4"   fill="#D4537E" opacity="0.88"/>
    <circle cx="248" cy="320" r="3.5" fill="#D4537E" opacity="0.82"/>
    <circle cx="265" cy="326" r="4"   fill="#D4537E" opacity="0.88"/>
    <circle cx="234" cy="342" r="3.5" fill="#D4537E" opacity="0.82"/>
    <circle cx="258" cy="340" r="4"   fill="#D4537E" opacity="0.85"/>
    <circle cx="278" cy="336" r="3.5" fill="#D4537E" opacity="0.8"/>
    <circle cx="245" cy="355" r="3"   fill="#72243E" opacity="0.72"/>
    <circle cx="263" cy="352" r="3.5" fill="#D4537E" opacity="0.78"/>

    <!-- B cells (purple) -->
    <circle cx="362" cy="175" r="4.5" fill="#7F77DD" opacity="0.92"/>
    <circle cx="378" cy="168" r="4"   fill="#7F77DD" opacity="0.88"/>
    <circle cx="394" cy="174" r="5"   fill="#7F77DD" opacity="0.92"/>
    <circle cx="410" cy="180" r="4"   fill="#534AB7" opacity="0.85"/>
    <circle cx="370" cy="186" r="4.5" fill="#534AB7" opacity="0.88"/>
    <circle cx="386" cy="184" r="4"   fill="#7F77DD" opacity="0.85"/>
    <circle cx="402" cy="190" r="4.5" fill="#7F77DD" opacity="0.9"/>
    <circle cx="418" cy="196" r="3.5" fill="#534AB7" opacity="0.78"/>
    <circle cx="375" cy="198" r="4"   fill="#7F77DD" opacity="0.85"/>
    <circle cx="392" cy="202" r="4.5" fill="#534AB7" opacity="0.88"/>
    <circle cx="408" cy="206" r="4"   fill="#7F77DD" opacity="0.82"/>
    <circle cx="365" cy="206" r="3.5" fill="#534AB7" opacity="0.75"/>
    <circle cx="420" cy="210" r="3"   fill="#534AB7" opacity="0.68"/>
    <circle cx="380" cy="212" r="3.5" fill="#7F77DD" opacity="0.78"/>
    <circle cx="396" cy="215" r="3.5" fill="#7F77DD" opacity="0.75"/>
    <circle cx="354" cy="190" r="3"   fill="#3C3489" opacity="0.68"/>
    <circle cx="425" cy="184" r="3"   fill="#3C3489" opacity="0.65"/>

    <!-- Stromal cells (blue) -->
    <circle cx="68"  cy="168" r="3.5" fill="#378ADD" opacity="0.6"/>
    <circle cx="85"  cy="175" r="3"   fill="#378ADD" opacity="0.55"/>
    <circle cx="102" cy="165" r="3.5" fill="#378ADD" opacity="0.6"/>
    <circle cx="120" cy="172" r="3"   fill="#185FA5" opacity="0.55"/>
    <circle cx="138" cy="165" r="3.5" fill="#378ADD" opacity="0.6"/>
    <circle cx="155" cy="172" r="3"   fill="#378ADD" opacity="0.55"/>
    <circle cx="172" cy="167" r="3.5" fill="#185FA5" opacity="0.58"/>
    <circle cx="210" cy="172" r="3"   fill="#378ADD" opacity="0.55"/>
    <circle cx="228" cy="165" r="3.5" fill="#378ADD" opacity="0.6"/>
    <circle cx="248" cy="170" r="3"   fill="#185FA5" opacity="0.55"/>
    <circle cx="268" cy="165" r="3.5" fill="#378ADD" opacity="0.6"/>
    <circle cx="292" cy="172" r="3"   fill="#378ADD" opacity="0.55"/>
    <circle cx="312" cy="165" r="3.5" fill="#185FA5" opacity="0.58"/>
    <circle cx="332" cy="170" r="3"   fill="#378ADD" opacity="0.55"/>
    <circle cx="78"  cy="240" r="3"   fill="#378ADD" opacity="0.45"/>
    <circle cx="95"  cy="255" r="3"   fill="#378ADD" opacity="0.42"/>
    <circle cx="422" cy="250" r="3"   fill="#378ADD" opacity="0.42"/>
    <circle cx="438" cy="235" r="3"   fill="#378ADD" opacity="0.42"/>
    <circle cx="440" cy="310" r="3"   fill="#378ADD" opacity="0.4"/>
    <circle cx="425" cy="325" r="2.5" fill="#378ADD" opacity="0.38"/>

    <!-- Necrotic zone (gray) -->
    <circle cx="80"  cy="348" r="3.5" fill="#888780" opacity="0.48"/>
    <circle cx="96"  cy="340" r="3"   fill="#888780" opacity="0.42"/>
    <circle cx="112" cy="348" r="3.5" fill="#5F5E5A" opacity="0.48"/>
    <circle cx="128" cy="342" r="3"   fill="#888780" opacity="0.42"/>
    <circle cx="88"  cy="358" r="3"   fill="#5F5E5A" opacity="0.45"/>
    <circle cx="105" cy="362" r="3.5" fill="#888780" opacity="0.5"/>
    <circle cx="122" cy="358" r="3"   fill="#5F5E5A" opacity="0.42"/>
    <circle cx="138" cy="355" r="3"   fill="#888780" opacity="0.4"/>
    <circle cx="94"  cy="372" r="3"   fill="#5F5E5A" opacity="0.42"/>
    <circle cx="112" cy="376" r="3"   fill="#888780" opacity="0.4"/>
    <circle cx="130" cy="370" r="2.5" fill="#5F5E5A" opacity="0.38"/>

    <!-- Scattered migrating cells -->
    <circle cx="400" cy="355" r="3"   fill="#378ADD" opacity="0.42"/>
    <circle cx="418" cy="362" r="3"   fill="#378ADD" opacity="0.38"/>
    <circle cx="390" cy="370" r="2.5" fill="#185FA5" opacity="0.38"/>
    <circle cx="310" cy="270" r="3"   fill="#1D9E75" opacity="0.65"/>
    <circle cx="152" cy="318" r="3"   fill="#1D9E75" opacity="0.62"/>
    <circle cx="170" cy="330" r="3"   fill="#D4537E" opacity="0.65"/>
    <circle cx="308" cy="352" r="3"   fill="#1D9E75" opacity="0.6"/>
    <circle cx="290" cy="258" r="3"   fill="#7F77DD" opacity="0.6"/>
    <circle cx="155" cy="235" r="3"   fill="#7F77DD" opacity="0.55"/>

    <!-- Scale bar -->
    <line x1="68" y1="430" x2="118" y2="430" stroke="#B4B2A9" stroke-width="1.2" opacity="0.5"/>
    <line x1="68" y1="426" x2="68"  y2="434" stroke="#B4B2A9" stroke-width="1.2" opacity="0.5"/>
    <line x1="118" y1="426" x2="118" y2="434" stroke="#B4B2A9" stroke-width="1.2" opacity="0.5"/>
    <text font-family="monospace" font-size="9" fill="#888780" text-anchor="middle" x="93" y="444" opacity="0.7">100 μm</text>

    <!-- Compass -->
    <circle cx="415" cy="432" r="14" fill="none" stroke="#444441" stroke-width="1" opacity="0.6"/>
    <line x1="415" y1="422" x2="415" y2="418" stroke="#E24B4A" stroke-width="1.5" stroke-linecap="round"/>
    <line x1="415" y1="436" x2="415" y2="446" stroke="#B4B2A9" stroke-width="1" stroke-linecap="round" opacity="0.5"/>
    <line x1="405" y1="432" x2="401" y2="432" stroke="#B4B2A9" stroke-width="1" stroke-linecap="round" opacity="0.5"/>
    <line x1="425" y1="432" x2="429" y2="432" stroke="#B4B2A9" stroke-width="1" stroke-linecap="round" opacity="0.5"/>
    <text font-family="monospace" font-size="8" fill="#E24B4A" text-anchor="middle" x="415" y="415" opacity="0.85">N</text>

  </g>

  <!-- Hex border -->
  <polygon points="250,30 455,145 455,375 250,490 45,375 45,145"
    fill="none" stroke="#185FA5" stroke-width="11" stroke-linejoin="round"/>
  <polygon points="250,44 441,153 441,367 250,476 59,367 59,153"
    fill="none" stroke="#0C447C" stroke-width="1.5" stroke-linejoin="round" opacity="0.6"/>

  <!-- Package name -->
  <text font-family="monospace" font-weight="700" font-size="24"
    fill="#B5D4F4" text-anchor="middle" x="250" y="545" letter-spacing="1">phenoscapR</text>
</svg>
