<svg width="500" height="580" viewBox="0 0 500 580" xmlns="http://www.w3.org/2000/svg">
  <defs>
    <linearGradient id="bgscimag" x1="0" y1="0" x2="0" y2="1">
      <stop offset="0%" stop-color="#070a0f"/>
      <stop offset="100%" stop-color="#030508"/>
    </linearGradient>
    <linearGradient id="cordgrad" x1="0" y1="0" x2="1" y2="0">
      <stop offset="0%" stop-color="#1e3a5f" stop-opacity="0.5"/>
      <stop offset="50%" stop-color="#2d5a8a" stop-opacity="0.7"/>
      <stop offset="100%" stop-color="#1e3a5f" stop-opacity="0.5"/>
    </linearGradient>
    <linearGradient id="lesion1" x1="0" y1="0" x2="1" y2="1">
      <stop offset="0%" stop-color="#ef4444"/>
      <stop offset="100%" stop-color="#b91c1c"/>
    </linearGradient>
    <linearGradient id="lesion2" x1="0" y1="0" x2="1" y2="1">
      <stop offset="0%" stop-color="#f97316"/>
      <stop offset="100%" stop-color="#c2410c"/>
    </linearGradient>
    <clipPath id="hexscimag">
      <polygon points="250,30 455,145 455,375 250,490 45,375 45,145"/>
    </clipPath>
  </defs>

  <polygon points="250,30 455,145 455,375 250,490 45,375 45,145" fill="url(#bgscimag)"/>

  <g clip-path="url(#hexscimag)">

    <!-- MRI scan circles -->
    <circle cx="250" cy="300" r="185" fill="none" stroke="#1e3a5f" stroke-width="0.5" opacity="0.3"/>
    <circle cx="250" cy="300" r="155" fill="none" stroke="#1e3a5f" stroke-width="0.4" opacity="0.25"/>
    <circle cx="250" cy="300" r="125" fill="none" stroke="#1e3a5f" stroke-width="0.4" opacity="0.2"/>

    <!-- Scan lines -->
    <line x1="80" y1="160" x2="420" y2="160" stroke="#1e3a5f" stroke-width="0.4" opacity="0.35"/>
    <line x1="80" y1="175" x2="420" y2="175" stroke="#1e3a5f" stroke-width="0.4" opacity="0.35"/>
    <line x1="80" y1="190" x2="420" y2="190" stroke="#1e3a5f" stroke-width="0.4" opacity="0.35"/>
    <line x1="80" y1="205" x2="420" y2="205" stroke="#1e3a5f" stroke-width="0.4" opacity="0.35"/>
    <line x1="80" y1="220" x2="420" y2="220" stroke="#1e3a5f" stroke-width="0.4" opacity="0.35"/>
    <line x1="80" y1="235" x2="420" y2="235" stroke="#1e3a5f" stroke-width="0.4" opacity="0.35"/>
    <line x1="80" y1="250" x2="420" y2="250" stroke="#1e3a5f" stroke-width="0.4" opacity="0.35"/>
    <line x1="80" y1="265" x2="420" y2="265" stroke="#1e3a5f" stroke-width="0.4" opacity="0.35"/>
    <line x1="80" y1="280" x2="420" y2="280" stroke="#1e3a5f" stroke-width="0.4" opacity="0.35"/>
    <line x1="80" y1="295" x2="420" y2="295" stroke="#1e3a5f" stroke-width="0.4" opacity="0.35"/>
    <line x1="80" y1="310" x2="420" y2="310" stroke="#1e3a5f" stroke-width="0.4" opacity="0.35"/>
    <line x1="80" y1="325" x2="420" y2="325" stroke="#1e3a5f" stroke-width="0.4" opacity="0.35"/>
    <line x1="80" y1="340" x2="420" y2="340" stroke="#1e3a5f" stroke-width="0.4" opacity="0.35"/>
    <line x1="80" y1="355" x2="420" y2="355" stroke="#1e3a5f" stroke-width="0.4" opacity="0.35"/>
    <line x1="80" y1="370" x2="420" y2="370" stroke="#1e3a5f" stroke-width="0.4" opacity="0.35"/>
    <line x1="80" y1="385" x2="420" y2="385" stroke="#1e3a5f" stroke-width="0.4" opacity="0.35"/>
    <line x1="80" y1="400" x2="420" y2="400" stroke="#1e3a5f" stroke-width="0.4" opacity="0.35"/>
    <line x1="80" y1="415" x2="420" y2="415" stroke="#1e3a5f" stroke-width="0.4" opacity="0.35"/>
    <line x1="80" y1="430" x2="420" y2="430" stroke="#1e3a5f" stroke-width="0.4" opacity="0.35"/>

    <!-- Vertebrae -->
    <rect x="224" y="152" width="52" height="22" rx="5" fill="#0d1f35" stroke="#2d5a8a" stroke-width="1.2" opacity="0.7"/>
    <rect x="224" y="182" width="52" height="22" rx="5" fill="#0d1f35" stroke="#2d5a8a" stroke-width="1.2" opacity="0.65"/>
    <rect x="224" y="212" width="52" height="22" rx="5" fill="#0d1f35" stroke="#2d5a8a" stroke-width="1.2" opacity="0.62"/>
    <rect x="224" y="242" width="52" height="22" rx="5" fill="#0d1f35" stroke="#2d5a8a" stroke-width="1.2" opacity="0.6"/>
    <rect x="224" y="272" width="52" height="22" rx="5" fill="#0d1f35" stroke="#2d5a8a" stroke-width="1.2" opacity="0.58"/>
    <rect x="224" y="302" width="52" height="22" rx="5" fill="#0d1f35" stroke="#2d5a8a" stroke-width="1.2" opacity="0.55"/>
    <rect x="224" y="332" width="52" height="22" rx="5" fill="#0d1f35" stroke="#2d5a8a" stroke-width="1.2" opacity="0.52"/>
    <rect x="224" y="362" width="52" height="22" rx="5" fill="#0d1f35" stroke="#2d5a8a" stroke-width="1.2" opacity="0.5"/>
    <rect x="224" y="392" width="52" height="22" rx="5" fill="#0d1f35" stroke="#2d5a8a" stroke-width="1.2" opacity="0.48"/>
    <rect x="224" y="422" width="52" height="22" rx="5" fill="#0d1f35" stroke="#2d5a8a" stroke-width="1.2" opacity="0.45"/>

    <!-- Discs -->
    <rect x="230" y="174" width="40" height="8" rx="2" fill="#0a3a5a" opacity="0.6"/>
    <rect x="230" y="204" width="40" height="8" rx="2" fill="#0a3a5a" opacity="0.58"/>
    <rect x="230" y="234" width="40" height="8" rx="2" fill="#0a3a5a" opacity="0.55"/>
    <rect x="230" y="264" width="40" height="8" rx="2" fill="#0a3a5a" opacity="0.52"/>
    <rect x="230" y="294" width="40" height="8" rx="2" fill="#0a3a5a" opacity="0.5"/>
    <rect x="230" y="324" width="40" height="8" rx="2" fill="#0a3a5a" opacity="0.48"/>
    <rect x="230" y="354" width="40" height="8" rx="2" fill="#0a3a5a" opacity="0.45"/>
    <rect x="230" y="384" width="40" height="8" rx="2" fill="#0a3a5a" opacity="0.42"/>
    <rect x="230" y="414" width="40" height="8" rx="2" fill="#0a3a5a" opacity="0.4"/>

    <!-- Spinal cord -->
    <rect x="238" y="152" width="24" height="292" rx="12" fill="url(#cordgrad)" opacity="0.85"/>
    <rect x="242" y="152" width="16" height="292" rx="8" fill="#3b82f6" opacity="0.2"/>
    <line x1="250" y1="158" x2="250" y2="438" stroke="#93c5fd" stroke-width="1.2" opacity="0.35" stroke-linecap="round"/>

    <!-- Level labels -->
    <text font-family="monospace" font-size="6.5" fill="#60a5fa" opacity="0.55" text-anchor="end" x="220" y="167">C3</text>
    <text font-family="monospace" font-size="6.5" fill="#60a5fa" opacity="0.5"  text-anchor="end" x="220" y="197">C4</text>
    <text font-family="monospace" font-size="6.5" fill="#60a5fa" opacity="0.5"  text-anchor="end" x="220" y="227">C5</text>
    <text font-family="monospace" font-size="6.5" fill="#60a5fa" opacity="0.48" text-anchor="end" x="220" y="257">C6</text>
    <text font-family="monospace" font-size="6.5" fill="#60a5fa" opacity="0.45" text-anchor="end" x="220" y="287">C7</text>
    <text font-family="monospace" font-size="6.5" fill="#60a5fa" opacity="0.42" text-anchor="end" x="220" y="317">T1</text>
    <text font-family="monospace" font-size="6.5" fill="#60a5fa" opacity="0.4"  text-anchor="end" x="220" y="347">T2</text>
    <text font-family="monospace" font-size="6.5" fill="#60a5fa" opacity="0.38" text-anchor="end" x="220" y="377">T3</text>
    <text font-family="monospace" font-size="6.5" fill="#60a5fa" opacity="0.35" text-anchor="end" x="220" y="407">T4</text>

    <!-- Lesion 1 — acute red, C4-C5 -->
    <ellipse cx="250" cy="214" rx="9" ry="14" fill="url(#lesion1)" opacity="0.88"/>
    <ellipse cx="250" cy="214" rx="6"  ry="9"  fill="#fca5a5" opacity="0.4"/>
    <ellipse cx="250" cy="214" rx="13" ry="18" fill="none" stroke="#ef4444" stroke-width="1" opacity="0.4"/>

    <!-- Lesion 2 — subacute orange, C6 -->
    <ellipse cx="250" cy="268" rx="7" ry="10" fill="url(#lesion2)" opacity="0.82"/>
    <ellipse cx="250" cy="268" rx="4"  ry="6"  fill="#fed7aa" opacity="0.35"/>
    <ellipse cx="250" cy="268" rx="10" ry="14" fill="none" stroke="#f97316" stroke-width="1" opacity="0.35"/>

    <!-- Temporal chart -->
    <line x1="310" y1="178" x2="310" y2="310" stroke="#60a5fa" stroke-width="0.8" opacity="0.4"/>
    <line x1="310" y1="310" x2="420" y2="310" stroke="#60a5fa" stroke-width="0.8" opacity="0.4"/>
    <text font-family="monospace" font-size="6" fill="#60a5fa" opacity="0.5" x="308" y="175" text-anchor="end">mm³</text>
    <text font-family="monospace" font-size="6" fill="#60a5fa" opacity="0.45" text-anchor="middle" x="327" y="320">T0</text>
    <text font-family="monospace" font-size="6" fill="#60a5fa" opacity="0.45" text-anchor="middle" x="354" y="320">T1</text>
    <text font-family="monospace" font-size="6" fill="#60a5fa" opacity="0.45" text-anchor="middle" x="381" y="320">T2</text>
    <text font-family="monospace" font-size="6" fill="#60a5fa" opacity="0.45" text-anchor="middle" x="408" y="320">T3</text>
    <polyline points="327,210 354,225 381,248 408,265" fill="none" stroke="#ef4444" stroke-width="1.8" stroke-linecap="round" stroke-linejoin="round" opacity="0.82"/>
    <circle cx="327" cy="210" r="3" fill="#ef4444" opacity="0.9"/>
    <circle cx="354" cy="225" r="3" fill="#ef4444" opacity="0.85"/>
    <circle cx="381" cy="248" r="3" fill="#ef4444" opacity="0.85"/>
    <circle cx="408" cy="265" r="3" fill="#ef4444" opacity="0.85"/>
    <polyline points="327,250 354,258 381,270 408,278" fill="none" stroke="#f97316" stroke-width="1.8" stroke-linecap="round" stroke-linejoin="round" opacity="0.78"/>
    <circle cx="327" cy="250" r="3" fill="#f97316" opacity="0.88"/>
    <circle cx="354" cy="258" r="3" fill="#f97316" opacity="0.82"/>
    <circle cx="381" cy="270" r="3" fill="#f97316" opacity="0.82"/>
    <circle cx="408" cy="278" r="3" fill="#f97316" opacity="0.82"/>
    <line x1="307" y1="210" x2="310" y2="210" stroke="#60a5fa" stroke-width="0.8" opacity="0.4"/>
    <line x1="307" y1="250" x2="310" y2="250" stroke="#60a5fa" stroke-width="0.8" opacity="0.4"/>
    <line x1="307" y1="280" x2="310" y2="280" stroke="#60a5fa" stroke-width="0.8" opacity="0.4"/>
    <line x1="263" y1="214" x2="310" y2="210" stroke="#ef4444" stroke-width="0.8" stroke-dasharray="3 2" opacity="0.4"/>
    <line x1="263" y1="268" x2="310" y2="250" stroke="#f97316" stroke-width="0.8" stroke-dasharray="3 2" opacity="0.38"/>

    <!-- Axial cross-section -->
    <line x1="157" y1="214" x2="238" y2="214" stroke="#ef4444" stroke-width="0.8" stroke-dasharray="3 2" opacity="0.45"/>
    <circle cx="118" cy="250" r="38" fill="#0d1f35" stroke="#2d5a8a" stroke-width="1.5" opacity="0.85"/>
    <ellipse cx="118" cy="250" rx="16" ry="14" fill="#1e3a5f" stroke="#60a5fa" stroke-width="1.2" opacity="0.8"/>
    <path d="M 118,242 C 112,242 108,246 108,250 C 108,254 112,258 118,258 C 124,258 128,254 128,250 C 128,246 124,242 118,242 Z" fill="#1e4a7f" opacity="0.6"/>
    <path d="M 114,246 L 114,254 M 122,246 L 122,254 M 114,250 L 122,250" fill="none" stroke="#93c5fd" stroke-width="1" opacity="0.5"/>
    <ellipse cx="124" cy="245" rx="5" ry="4" fill="#ef4444" opacity="0.75"/>
    <ellipse cx="118" cy="250" rx="22" ry="20" fill="none" stroke="#93c5fd" stroke-width="1" opacity="0.35" stroke-dasharray="3 2"/>
    <circle cx="118" cy="250" r="32" fill="none" stroke="#60a5fa" stroke-width="1" opacity="0.4"/>
    <text font-family="monospace" font-size="6.5" fill="#60a5fa" opacity="0.55" text-anchor="middle" x="118" y="300">C4 axial</text>

  </g>

  <!-- Hex border -->
  <polygon points="250,30 455,145 455,375 250,490 45,375 45,145"
    fill="none" stroke="#1e40af" stroke-width="11" stroke-linejoin="round"/>
  <polygon points="250,44 441,153 441,367 250,476 59,367 59,153"
    fill="none" stroke="#3b82f6" stroke-width="1.5" stroke-linejoin="round" opacity="0.5"/>

  <!-- Package name -->
  <text font-family="monospace" font-weight="700" font-size="27"
    fill="#93c5fd" text-anchor="middle" x="250" y="545" letter-spacing="1">scimagR</text>
</svg>
