<svg width="500" height="580" viewBox="0 0 500 580" xmlns="http://www.w3.org/2000/svg">
  <defs>
    <linearGradient id="bgseg" x1="0" y1="0" x2="0.5" y2="1">
      <stop offset="0%" stop-color="#1A0F1E"/>
      <stop offset="100%" stop-color="#0F0A14"/>
    </linearGradient>
    <clipPath id="hexseg">
      <polygon points="250,30 455,145 455,375 250,490 45,375 45,145"/>
    </clipPath>
  </defs>

  <polygon points="250,30 455,145 455,375 250,490 45,375 45,145" fill="url(#bgseg)"/>

  <g clip-path="url(#hexseg)">

    <!-- Cell 1 — main large, centre-left -->
    <path d="M 168,218 C 182,198 208,192 228,200 C 248,208 258,226 255,248
             C 252,268 236,282 214,284 C 192,285 172,272 165,252
             C 159,234 157,234 168,218 Z"
      fill="#E8636A" opacity="0.1" stroke="#E8636A" stroke-width="2.2"/>
    <ellipse cx="210" cy="240" rx="24" ry="20" fill="#E8636A" opacity="0.15" stroke="#E8636A" stroke-width="2.5"/>
    <circle cx="210" cy="240" r="5" fill="#E8636A" opacity="0.6"/>
    <circle cx="192" cy="228" r="2.5" fill="#E8636A" opacity="0.3"/>
    <circle cx="228" cy="225" r="2" fill="#E8636A" opacity="0.25"/>
    <circle cx="238" cy="252" r="2" fill="#E8636A" opacity="0.25"/>
    <circle cx="185" cy="258" r="2.5" fill="#E8636A" opacity="0.28"/>

    <!-- Cell 2 — overlapping right -->
    <path d="M 256,210 C 272,194 300,190 318,202 C 336,214 342,236 336,256
             C 330,275 312,286 292,284 C 272,282 256,266 252,248
             C 248,232 244,224 256,210 Z"
      fill="#E8636A" opacity="0.08" stroke="#E8636A" stroke-width="2"/>
    <ellipse cx="296" cy="242" rx="22" ry="18" fill="#E8636A" opacity="0.12" stroke="#E8636A" stroke-width="2.2"/>
    <circle cx="296" cy="242" r="4.5" fill="#E8636A" opacity="0.55"/>
    <circle cx="278" cy="230" r="2" fill="#E8636A" opacity="0.28"/>
    <circle cx="316" cy="228" r="2.5" fill="#E8636A" opacity="0.25"/>
    <circle cx="320" cy="256" r="2" fill="#E8636A" opacity="0.22"/>

    <!-- Cell 3 — partial top -->
    <path d="M 200,168 C 212,154 234,152 248,162 C 260,172 263,188 255,200
             C 248,210 232,213 218,208 C 204,202 195,188 196,176
             C 196,172 198,170 200,168 Z"
      fill="#E8636A" opacity="0.07" stroke="#E8636A" stroke-width="1.8"/>
    <ellipse cx="228" cy="183" rx="18" ry="14" fill="#E8636A" opacity="0.1" stroke="#E8636A" stroke-width="1.8"/>
    <circle cx="228" cy="183" r="4" fill="#E8636A" opacity="0.45"/>

    <!-- Cell 4 — partial bottom-left -->
    <path d="M 148,288 C 162,274 184,272 198,282 C 210,292 214,310 206,324
             C 198,338 180,342 164,334 C 150,326 142,310 144,296
             C 144,292 146,290 148,288 Z"
      fill="#E8636A" opacity="0.07" stroke="#E8636A" stroke-width="1.8"/>
    <ellipse cx="178" cy="308" rx="18" ry="15" fill="#E8636A" opacity="0.1" stroke="#E8636A" stroke-width="1.8"/>
    <circle cx="178" cy="308" r="4" fill="#E8636A" opacity="0.42"/>

    <!-- Cell 5 — partial bottom-right -->
    <path d="M 306,278 C 322,266 346,268 358,282 C 368,294 366,314 352,324
             C 338,334 316,332 304,320 C 294,308 292,292 306,278 Z"
      fill="#E8636A" opacity="0.07" stroke="#E8636A" stroke-width="1.8"/>
    <ellipse cx="332" cy="300" rx="19" ry="15" fill="#E8636A" opacity="0.1" stroke="#E8636A" stroke-width="1.8"/>
    <circle cx="332" cy="300" r="4" fill="#E8636A" opacity="0.42"/>

    <!-- Cell 6 — top right hint -->
    <path d="M 320,172 C 334,160 356,162 364,176 C 372,190 366,208 350,214
             C 336,220 318,212 314,198 C 310,186 310,182 320,172 Z"
      fill="#E8636A" opacity="0.06" stroke="#E8636A" stroke-width="1.6"/>
    <ellipse cx="340" cy="190" rx="16" ry="13" fill="#E8636A" opacity="0.08" stroke="#E8636A" stroke-width="1.5"/>
    <circle cx="340" cy="190" r="3.5" fill="#E8636A" opacity="0.38"/>

    <!-- Segmentation cut lines -->
    <line x1="254" y1="196" x2="252" y2="290" stroke="#ffffff" stroke-width="1.8" stroke-dasharray="6 4" stroke-linecap="round" opacity="0.65"/>
    <line x1="160" y1="272" x2="198" y2="288" stroke="#ffffff" stroke-width="1.5" stroke-dasharray="5 3" stroke-linecap="round" opacity="0.5"/>
    <line x1="300" y1="274" x2="308" y2="286" stroke="#ffffff" stroke-width="1.5" stroke-dasharray="5 3" stroke-linecap="round" opacity="0.5"/>
    <line x1="196" y1="202" x2="214" y2="218" stroke="#ffffff" stroke-width="1.5" stroke-dasharray="5 3" stroke-linecap="round" opacity="0.5"/>
    <line x1="256" y1="198" x2="248" y2="208" stroke="#ffffff" stroke-width="1.4" stroke-dasharray="4 3" stroke-linecap="round" opacity="0.45"/>

    <!-- Annotation markers -->
    <circle cx="253" cy="244" r="6"   fill="none" stroke="#ffffff" stroke-width="1.5" opacity="0.75"/>
    <circle cx="253" cy="244" r="3.5" fill="#E8636A" opacity="0.9"/>
    <circle cx="253" cy="244" r="1.5" fill="#ffffff" opacity="0.8"/>
    <circle cx="196" cy="202" r="5"   fill="none" stroke="#ffffff" stroke-width="1.2" opacity="0.6"/>
    <circle cx="196" cy="202" r="2.8" fill="#E8636A" opacity="0.85"/>
    <circle cx="196" cy="202" r="1.2" fill="#ffffff" opacity="0.7"/>
    <circle cx="300" cy="276" r="4.5" fill="none" stroke="#ffffff" stroke-width="1.2" opacity="0.55"/>
    <circle cx="300" cy="276" r="2.5" fill="#E8636A" opacity="0.8"/>
    <circle cx="158" cy="272" r="4"   fill="none" stroke="#ffffff" stroke-width="1.2" opacity="0.5"/>
    <circle cx="158" cy="272" r="2.2" fill="#E8636A" opacity="0.75"/>

    <!-- Cell ID labels -->
    <text font-family="monospace" font-size="8" fill="#ffffff" opacity="0.45" text-anchor="middle" x="210" y="243">1</text>
    <text font-family="monospace" font-size="8" fill="#ffffff" opacity="0.4"  text-anchor="middle" x="296" y="245">2</text>
    <text font-family="monospace" font-size="8" fill="#ffffff" opacity="0.35" text-anchor="middle" x="228" y="186">3</text>
    <text font-family="monospace" font-size="8" fill="#ffffff" opacity="0.35" text-anchor="middle" x="178" y="311">4</text>
    <text font-family="monospace" font-size="8" fill="#ffffff" opacity="0.35" text-anchor="middle" x="332" y="303">5</text>

    <!-- Bounding box — cell 1 -->
    <rect x="157" y="192" width="100" height="98" rx="3" fill="none" stroke="#E8636A" stroke-width="1" stroke-dasharray="4 3" opacity="0.35"/>
    <line x1="157" y1="197" x2="157" y2="192" stroke="#E8636A" stroke-width="1.5" opacity="0.6"/>
    <line x1="157" y1="192" x2="163" y2="192" stroke="#E8636A" stroke-width="1.5" opacity="0.6"/>
    <line x1="257" y1="192" x2="252" y2="192" stroke="#E8636A" stroke-width="1.5" opacity="0.6"/>
    <line x1="257" y1="192" x2="257" y2="197" stroke="#E8636A" stroke-width="1.5" opacity="0.6"/>
    <line x1="157" y1="285" x2="157" y2="290" stroke="#E8636A" stroke-width="1.5" opacity="0.6"/>
    <line x1="157" y1="290" x2="163" y2="290" stroke="#E8636A" stroke-width="1.5" opacity="0.6"/>
    <line x1="257" y1="285" x2="257" y2="290" stroke="#E8636A" stroke-width="1.5" opacity="0.6"/>
    <line x1="257" y1="290" x2="252" y2="290" stroke="#E8636A" stroke-width="1.5" opacity="0.6"/>

    <!-- Bounding box — cell 2 -->
    <rect x="244" y="190" width="102" height="100" rx="3" fill="none" stroke="#E8636A" stroke-width="1" stroke-dasharray="4 3" opacity="0.28"/>
    <line x1="244" y1="195" x2="244" y2="190" stroke="#E8636A" stroke-width="1.5" opacity="0.5"/>
    <line x1="244" y1="190" x2="250" y2="190" stroke="#E8636A" stroke-width="1.5" opacity="0.5"/>
    <line x1="346" y1="190" x2="341" y2="190" stroke="#E8636A" stroke-width="1.5" opacity="0.5"/>
    <line x1="346" y1="190" x2="346" y2="195" stroke="#E8636A" stroke-width="1.5" opacity="0.5"/>
    <line x1="244" y1="285" x2="244" y2="290" stroke="#E8636A" stroke-width="1.5" opacity="0.5"/>
    <line x1="244" y1="290" x2="250" y2="290" stroke="#E8636A" stroke-width="1.5" opacity="0.5"/>
    <line x1="346" y1="285" x2="346" y2="290" stroke="#E8636A" stroke-width="1.5" opacity="0.5"/>
    <line x1="346" y1="290" x2="341" y2="290" stroke="#E8636A" stroke-width="1.5" opacity="0.5"/>

    <!-- Pixel grid overlay -->
    <line x1="157" y1="210" x2="257" y2="210" stroke="#E8636A" stroke-width="0.3" opacity="0.15"/>
    <line x1="157" y1="230" x2="257" y2="230" stroke="#E8636A" stroke-width="0.3" opacity="0.15"/>
    <line x1="157" y1="250" x2="257" y2="250" stroke="#E8636A" stroke-width="0.3" opacity="0.15"/>
    <line x1="157" y1="270" x2="257" y2="270" stroke="#E8636A" stroke-width="0.3" opacity="0.15"/>
    <line x1="177" y1="192" x2="177" y2="290" stroke="#E8636A" stroke-width="0.3" opacity="0.15"/>
    <line x1="197" y1="192" x2="197" y2="290" stroke="#E8636A" stroke-width="0.3" opacity="0.15"/>
    <line x1="217" y1="192" x2="217" y2="290" stroke="#E8636A" stroke-width="0.3" opacity="0.15"/>
    <line x1="237" y1="192" x2="237" y2="290" stroke="#E8636A" stroke-width="0.3" opacity="0.15"/>

  </g>

  <!-- Hex border -->
  <polygon points="250,30 455,145 455,375 250,490 45,375 45,145"
    fill="none" stroke="#D4454D" stroke-width="11" stroke-linejoin="round"/>
  <polygon points="250,44 441,153 441,367 250,476 59,367 59,153"
    fill="none" stroke="#E8636A" stroke-width="1.5" stroke-linejoin="round" opacity="0.5"/>

  <!-- Package name -->
  <text font-family="monospace" font-weight="700" font-size="27"
    fill="#ffffff" text-anchor="middle" x="250" y="545" letter-spacing="1">segmantR</text>

</svg>
