<svg width="500" height="580" viewBox="0 0 500 580" xmlns="http://www.w3.org/2000/svg">
  <defs>
    <linearGradient id="bgsong" x1="0" y1="0" x2="0" y2="1">
      <stop offset="0%" stop-color="#080610"/>
      <stop offset="100%" stop-color="#04030a"/>
    </linearGradient>
    <clipPath id="hexsong">
      <polygon points="250,30 455,145 455,375 250,490 45,375 45,145"/>
    </clipPath>
  </defs>
  <polygon points="250,30 455,145 455,375 250,490 45,375 45,145" fill="url(#bgsong)"/>
  <g clip-path="url(#hexsong)">

    <line x1="45" y1="200" x2="455" y2="200" stroke="#fff" stroke-width="0.3" opacity="0.04"/>
    <line x1="45" y1="260" x2="455" y2="260" stroke="#fff" stroke-width="0.3" opacity="0.04"/>
    <line x1="45" y1="320" x2="455" y2="320" stroke="#fff" stroke-width="0.3" opacity="0.04"/>
    <line x1="45" y1="380" x2="455" y2="380" stroke="#fff" stroke-width="0.3" opacity="0.04"/>
    <line x1="45" y1="440" x2="455" y2="440" stroke="#fff" stroke-width="0.3" opacity="0.04"/>
    <line x1="152" y1="145" x2="152" y2="490" stroke="#fff" stroke-width="0.3" opacity="0.04"/>
    <line x1="250" y1="145" x2="250" y2="490" stroke="#fff" stroke-width="0.3" opacity="0.04"/>
    <line x1="348" y1="145" x2="348" y2="490" stroke="#fff" stroke-width="0.3" opacity="0.04"/>

    <!-- CLUSTER A — GREEN -->
    <circle cx="345" cy="192" r="58" fill="none" stroke="#39b54a" stroke-width="0.8" stroke-dasharray="3 5" opacity="0.2"/>
    <circle cx="345" cy="192" r="46" fill="none" stroke="#39b54a" stroke-width="1" stroke-dasharray="3 4" opacity="0.3"/>
    <circle cx="345" cy="192" r="33" fill="none" stroke="#39b54a" stroke-width="1.2" stroke-dasharray="2 3" opacity="0.42"/>
    <circle cx="345" cy="192" r="20" fill="#0d2a10" opacity="0.75"/>
    <circle cx="288" cy="158" r="2" fill="#56c967" opacity="0.28"/><circle cx="310" cy="148" r="2" fill="#39b54a" opacity="0.26"/><circle cx="334" cy="144" r="2" fill="#2da844" opacity="0.28"/><circle cx="360" cy="146" r="2" fill="#56c967" opacity="0.26"/><circle cx="382" cy="156" r="2" fill="#39b54a" opacity="0.28"/><circle cx="396" cy="172" r="2" fill="#2da844" opacity="0.26"/><circle cx="402" cy="192" r="2" fill="#56c967" opacity="0.28"/><circle cx="398" cy="214" r="2" fill="#39b54a" opacity="0.26"/><circle cx="386" cy="232" r="2" fill="#2da844" opacity="0.28"/><circle cx="366" cy="244" r="2" fill="#56c967" opacity="0.26"/><circle cx="342" cy="248" r="2" fill="#39b54a" opacity="0.28"/><circle cx="318" cy="244" r="2" fill="#2da844" opacity="0.26"/><circle cx="298" cy="232" r="2" fill="#56c967" opacity="0.28"/><circle cx="284" cy="214" r="2" fill="#39b54a" opacity="0.26"/><circle cx="280" cy="192" r="2" fill="#2da844" opacity="0.28"/><circle cx="284" cy="170" r="2" fill="#56c967" opacity="0.26"/><circle cx="296" cy="152" r="2" fill="#39b54a" opacity="0.26"/><circle cx="320" cy="144" r="2" fill="#2da844" opacity="0.24"/><circle cx="372" cy="148" r="2" fill="#56c967" opacity="0.24"/><circle cx="400" cy="164" r="2" fill="#39b54a" opacity="0.24"/>
    <circle cx="304" cy="158" r="2.2" fill="#56c967" opacity="0.4"/><circle cx="318" cy="150" r="2.2" fill="#39b54a" opacity="0.4"/><circle cx="334" cy="150" r="2.2" fill="#2da844" opacity="0.42"/><circle cx="350" cy="152" r="2.2" fill="#56c967" opacity="0.4"/><circle cx="364" cy="160" r="2.2" fill="#39b54a" opacity="0.4"/><circle cx="374" cy="172" r="2.2" fill="#2da844" opacity="0.42"/><circle cx="380" cy="186" r="2.2" fill="#56c967" opacity="0.4"/><circle cx="378" cy="202" r="2.2" fill="#39b54a" opacity="0.4"/><circle cx="370" cy="216" r="2.2" fill="#2da844" opacity="0.42"/><circle cx="358" cy="226" r="2.2" fill="#56c967" opacity="0.4"/><circle cx="342" cy="230" r="2.2" fill="#39b54a" opacity="0.4"/><circle cx="326" cy="226" r="2.2" fill="#2da844" opacity="0.42"/><circle cx="312" cy="216" r="2.2" fill="#56c967" opacity="0.4"/><circle cx="304" cy="202" r="2.2" fill="#39b54a" opacity="0.4"/><circle cx="304" cy="186" r="2.2" fill="#2da844" opacity="0.42"/><circle cx="310" cy="170" r="2.2" fill="#56c967" opacity="0.4"/>
    <circle cx="318" cy="164" r="2.5" fill="#56c967" opacity="0.56"/><circle cx="330" cy="158" r="2.5" fill="#39b54a" opacity="0.58"/><circle cx="344" cy="158" r="2.5" fill="#2da844" opacity="0.56"/><circle cx="358" cy="162" r="2.5" fill="#56c967" opacity="0.58"/><circle cx="368" cy="172" r="2.5" fill="#39b54a" opacity="0.56"/><circle cx="372" cy="185" r="2.5" fill="#2da844" opacity="0.58"/><circle cx="370" cy="200" r="2.5" fill="#56c967" opacity="0.56"/><circle cx="362" cy="212" r="2.5" fill="#39b54a" opacity="0.58"/><circle cx="348" cy="218" r="2.5" fill="#2da844" opacity="0.56"/><circle cx="332" cy="216" r="2.5" fill="#56c967" opacity="0.58"/><circle cx="320" cy="208" r="2.5" fill="#39b54a" opacity="0.56"/><circle cx="314" cy="195" r="2.5" fill="#2da844" opacity="0.58"/><circle cx="316" cy="180" r="2.5" fill="#56c967" opacity="0.56"/>
    <circle cx="330" cy="176" r="3.2" fill="#56c967" opacity="0.92"/><circle cx="340" cy="170" r="3.5" fill="#39b54a" opacity="0.95"/><circle cx="352" cy="173" r="3.2" fill="#2da844" opacity="0.92"/><circle cx="360" cy="182" r="3.2" fill="#56c967" opacity="0.92"/><circle cx="362" cy="193" r="3.5" fill="#39b54a" opacity="0.95"/><circle cx="357" cy="204" r="3.2" fill="#2da844" opacity="0.92"/><circle cx="347" cy="212" r="3.2" fill="#56c967" opacity="0.92"/><circle cx="334" cy="212" r="3.5" fill="#39b54a" opacity="0.95"/><circle cx="324" cy="204" r="3.2" fill="#2da844" opacity="0.92"/><circle cx="320" cy="192" r="3.2" fill="#56c967" opacity="0.92"/><circle cx="323" cy="181" r="3.2" fill="#39b54a" opacity="0.92"/><circle cx="332" cy="186" r="3" fill="#2da844" opacity="0.95"/><circle cx="342" cy="183" r="3.2" fill="#56c967" opacity="0.95"/><circle cx="349" cy="192" r="3.5" fill="#39b54a" opacity="0.98"/><circle cx="340" cy="197" r="3" fill="#2da844" opacity="0.95"/><circle cx="332" cy="196" r="3" fill="#56c967" opacity="0.95"/>

    <!-- CLUSTER B — PURPLE -->
    <circle cx="162" cy="300" r="60" fill="none" stroke="#7f77dd" stroke-width="0.8" stroke-dasharray="3 5" opacity="0.2"/>
    <circle cx="162" cy="300" r="48" fill="none" stroke="#7f77dd" stroke-width="1" stroke-dasharray="3 4" opacity="0.3"/>
    <circle cx="162" cy="300" r="35" fill="none" stroke="#7f77dd" stroke-width="1.2" stroke-dasharray="2 3" opacity="0.42"/>
    <circle cx="162" cy="300" r="22" fill="#110e2a" opacity="0.75"/>
    <circle cx="104" cy="260" r="2" fill="#7f77dd" opacity="0.26"/><circle cx="124" cy="246" r="2" fill="#534AB7" opacity="0.26"/><circle cx="148" cy="242" r="2" fill="#7f77dd" opacity="0.28"/><circle cx="172" cy="244" r="2" fill="#534AB7" opacity="0.26"/><circle cx="194" cy="256" r="2" fill="#7f77dd" opacity="0.28"/><circle cx="210" cy="272" r="2" fill="#534AB7" opacity="0.26"/><circle cx="218" cy="294" r="2" fill="#7f77dd" opacity="0.28"/><circle cx="214" cy="318" r="2" fill="#534AB7" opacity="0.26"/><circle cx="204" cy="338" r="2" fill="#7f77dd" opacity="0.28"/><circle cx="186" cy="352" r="2" fill="#534AB7" opacity="0.26"/><circle cx="164" cy="358" r="2" fill="#7f77dd" opacity="0.28"/><circle cx="140" cy="354" r="2" fill="#534AB7" opacity="0.26"/><circle cx="120" cy="342" r="2" fill="#7f77dd" opacity="0.28"/><circle cx="106" cy="322" r="2" fill="#534AB7" opacity="0.26"/><circle cx="100" cy="298" r="2" fill="#7f77dd" opacity="0.28"/><circle cx="102" cy="274" r="2" fill="#534AB7" opacity="0.26"/>
    <circle cx="118" cy="258" r="2.2" fill="#7f77dd" opacity="0.4"/><circle cx="134" cy="250" r="2.2" fill="#534AB7" opacity="0.42"/><circle cx="152" cy="250" r="2.2" fill="#7f77dd" opacity="0.4"/><circle cx="170" cy="252" r="2.2" fill="#534AB7" opacity="0.42"/><circle cx="186" cy="262" r="2.2" fill="#7f77dd" opacity="0.4"/><circle cx="196" cy="276" r="2.2" fill="#534AB7" opacity="0.42"/><circle cx="200" cy="294" r="2.2" fill="#7f77dd" opacity="0.4"/><circle cx="198" cy="312" r="2.2" fill="#534AB7" opacity="0.42"/><circle cx="190" cy="328" r="2.2" fill="#7f77dd" opacity="0.4"/><circle cx="176" cy="340" r="2.2" fill="#534AB7" opacity="0.42"/><circle cx="158" cy="344" r="2.2" fill="#7f77dd" opacity="0.4"/><circle cx="140" cy="340" r="2.2" fill="#534AB7" opacity="0.42"/><circle cx="126" cy="328" r="2.2" fill="#7f77dd" opacity="0.4"/><circle cx="118" cy="312" r="2.2" fill="#534AB7" opacity="0.42"/><circle cx="116" cy="294" r="2.2" fill="#7f77dd" opacity="0.4"/><circle cx="120" cy="276" r="2.2" fill="#534AB7" opacity="0.42"/>
    <circle cx="132" cy="268" r="2.5" fill="#7f77dd" opacity="0.56"/><circle cx="146" cy="260" r="2.5" fill="#534AB7" opacity="0.58"/><circle cx="162" cy="260" r="2.5" fill="#7f77dd" opacity="0.56"/><circle cx="178" cy="264" r="2.5" fill="#534AB7" opacity="0.58"/><circle cx="190" cy="275" r="2.5" fill="#7f77dd" opacity="0.56"/><circle cx="196" cy="290" r="2.5" fill="#534AB7" opacity="0.58"/><circle cx="194" cy="308" r="2.5" fill="#7f77dd" opacity="0.56"/><circle cx="186" cy="322" r="2.5" fill="#534AB7" opacity="0.58"/><circle cx="172" cy="332" r="2.5" fill="#7f77dd" opacity="0.56"/><circle cx="155" cy="334" r="2.5" fill="#534AB7" opacity="0.58"/><circle cx="138" cy="328" r="2.5" fill="#7f77dd" opacity="0.56"/><circle cx="128" cy="316" r="2.5" fill="#534AB7" opacity="0.58"/><circle cx="124" cy="300" r="2.5" fill="#7f77dd" opacity="0.56"/><circle cx="128" cy="284" r="2.5" fill="#534AB7" opacity="0.58"/><circle cx="136" cy="272" r="2.5" fill="#7f77dd" opacity="0.56"/>
    <circle cx="146" cy="280" r="3.2" fill="#7f77dd" opacity="0.92"/><circle cx="158" cy="274" r="3.5" fill="#534AB7" opacity="0.95"/><circle cx="172" cy="277" r="3.2" fill="#7f77dd" opacity="0.92"/><circle cx="182" cy="288" r="3.2" fill="#534AB7" opacity="0.92"/><circle cx="185" cy="300" r="3.5" fill="#7f77dd" opacity="0.95"/><circle cx="181" cy="313" r="3.2" fill="#534AB7" opacity="0.92"/><circle cx="170" cy="322" r="3.2" fill="#7f77dd" opacity="0.92"/><circle cx="156" cy="325" r="3.5" fill="#534AB7" opacity="0.95"/><circle cx="143" cy="320" r="3.2" fill="#7f77dd" opacity="0.92"/><circle cx="135" cy="308" r="3.2" fill="#534AB7" opacity="0.92"/><circle cx="134" cy="294" r="3.2" fill="#7f77dd" opacity="0.92"/><circle cx="140" cy="282" r="3.2" fill="#534AB7" opacity="0.92"/><circle cx="153" cy="290" r="3" fill="#7f77dd" opacity="0.95"/><circle cx="164" cy="288" r="3.2" fill="#534AB7" opacity="0.95"/><circle cx="170" cy="299" r="3.5" fill="#7f77dd" opacity="0.98"/><circle cx="160" cy="306" r="3" fill="#534AB7" opacity="0.95"/><circle cx="149" cy="302" r="3" fill="#7f77dd" opacity="0.95"/><circle cx="158" cy="298" r="3.2" fill="#534AB7" opacity="0.98"/>

    <!-- CLUSTER C — TEAL -->
    <circle cx="372" cy="385" r="50" fill="none" stroke="#1D9E75" stroke-width="0.8" stroke-dasharray="3 5" opacity="0.2"/>
    <circle cx="372" cy="385" r="40" fill="none" stroke="#1D9E75" stroke-width="1" stroke-dasharray="3 4" opacity="0.3"/>
    <circle cx="372" cy="385" r="28" fill="none" stroke="#1D9E75" stroke-width="1.2" stroke-dasharray="2 3" opacity="0.42"/>
    <circle cx="372" cy="385" r="17" fill="#08201a" opacity="0.75"/>
    <circle cx="326" cy="352" r="2" fill="#5DCAA5" opacity="0.26"/><circle cx="344" cy="340" r="2" fill="#1D9E75" opacity="0.26"/><circle cx="364" cy="336" r="2" fill="#5DCAA5" opacity="0.28"/><circle cx="386" cy="340" r="2" fill="#1D9E75" opacity="0.26"/><circle cx="404" cy="352" r="2" fill="#5DCAA5" opacity="0.28"/><circle cx="416" cy="368" r="2" fill="#1D9E75" opacity="0.26"/><circle cx="420" cy="388" r="2" fill="#5DCAA5" opacity="0.28"/><circle cx="414" cy="408" r="2" fill="#1D9E75" opacity="0.26"/><circle cx="400" cy="424" r="2" fill="#5DCAA5" opacity="0.28"/><circle cx="380" cy="434" r="2" fill="#1D9E75" opacity="0.26"/><circle cx="358" cy="434" r="2" fill="#5DCAA5" opacity="0.28"/><circle cx="336" cy="426" r="2" fill="#1D9E75" opacity="0.26"/><circle cx="320" cy="410" r="2" fill="#5DCAA5" opacity="0.28"/><circle cx="314" cy="390" r="2" fill="#1D9E75" opacity="0.26"/><circle cx="318" cy="368" r="2" fill="#5DCAA5" opacity="0.26"/>
    <circle cx="336" cy="352" r="2.2" fill="#5DCAA5" opacity="0.4"/><circle cx="350" cy="346" r="2.2" fill="#1D9E75" opacity="0.42"/><circle cx="366" cy="344" r="2.2" fill="#5DCAA5" opacity="0.4"/><circle cx="382" cy="348" r="2.2" fill="#1D9E75" opacity="0.42"/><circle cx="394" cy="358" r="2.2" fill="#5DCAA5" opacity="0.4"/><circle cx="402" cy="372" r="2.2" fill="#1D9E75" opacity="0.42"/><circle cx="404" cy="388" r="2.2" fill="#5DCAA5" opacity="0.4"/><circle cx="398" cy="404" r="2.2" fill="#1D9E75" opacity="0.42"/><circle cx="388" cy="416" r="2.2" fill="#5DCAA5" opacity="0.4"/><circle cx="372" cy="422" r="2.2" fill="#1D9E75" opacity="0.42"/><circle cx="356" cy="420" r="2.2" fill="#5DCAA5" opacity="0.4"/><circle cx="342" cy="412" r="2.2" fill="#1D9E75" opacity="0.42"/><circle cx="334" cy="398" r="2.2" fill="#5DCAA5" opacity="0.4"/><circle cx="332" cy="382" r="2.2" fill="#1D9E75" opacity="0.42"/><circle cx="336" cy="366" r="2.2" fill="#5DCAA5" opacity="0.4"/>
    <circle cx="348" cy="360" r="2.5" fill="#5DCAA5" opacity="0.56"/><circle cx="360" cy="354" r="2.5" fill="#1D9E75" opacity="0.58"/><circle cx="374" cy="354" r="2.5" fill="#5DCAA5" opacity="0.56"/><circle cx="386" cy="360" r="2.5" fill="#1D9E75" opacity="0.58"/><circle cx="394" cy="371" r="2.5" fill="#5DCAA5" opacity="0.56"/><circle cx="396" cy="385" r="2.5" fill="#1D9E75" opacity="0.58"/><circle cx="392" cy="399" r="2.5" fill="#5DCAA5" opacity="0.56"/><circle cx="381" cy="410" r="2.5" fill="#1D9E75" opacity="0.58"/><circle cx="367" cy="413" r="2.5" fill="#5DCAA5" opacity="0.56"/><circle cx="353" cy="408" r="2.5" fill="#1D9E75" opacity="0.58"/><circle cx="344" cy="396" r="2.5" fill="#5DCAA5" opacity="0.56"/><circle cx="342" cy="382" r="2.5" fill="#1D9E75" opacity="0.58"/><circle cx="348" cy="370" r="2.5" fill="#5DCAA5" opacity="0.56"/>
    <circle cx="358" cy="370" r="3.2" fill="#5DCAA5" opacity="0.92"/><circle cx="370" cy="366" r="3.5" fill="#1D9E75" opacity="0.95"/><circle cx="382" cy="370" r="3.2" fill="#5DCAA5" opacity="0.92"/><circle cx="390" cy="380" r="3.2" fill="#1D9E75" opacity="0.92"/><circle cx="391" cy="393" r="3.5" fill="#5DCAA5" opacity="0.95"/><circle cx="383" cy="403" r="3.2" fill="#1D9E75" opacity="0.92"/><circle cx="370" cy="408" r="3.2" fill="#5DCAA5" opacity="0.92"/><circle cx="357" cy="403" r="3.5" fill="#1D9E75" opacity="0.95"/><circle cx="350" cy="392" r="3.2" fill="#5DCAA5" opacity="0.92"/><circle cx="350" cy="379" r="3.2" fill="#1D9E75" opacity="0.92"/><circle cx="364" cy="380" r="3" fill="#1D9E75" opacity="0.95"/><circle cx="374" cy="378" r="3.5" fill="#5DCAA5" opacity="0.98"/><circle cx="371" cy="390" r="3" fill="#1D9E75" opacity="0.95"/><circle cx="362" cy="390" r="3" fill="#5DCAA5" opacity="0.95"/>

    <!-- CLUSTER D — AMBER -->
    <circle cx="248" cy="420" r="44" fill="none" stroke="#EF9F27" stroke-width="0.8" stroke-dasharray="3 5" opacity="0.2"/>
    <circle cx="248" cy="420" r="34" fill="none" stroke="#EF9F27" stroke-width="1" stroke-dasharray="3 4" opacity="0.3"/>
    <circle cx="248" cy="420" r="23" fill="none" stroke="#EF9F27" stroke-width="1.2" stroke-dasharray="2 3" opacity="0.42"/>
    <circle cx="248" cy="420" r="14" fill="#221200" opacity="0.75"/>
    <circle cx="208" cy="392" r="2" fill="#FAC775" opacity="0.26"/><circle cx="224" cy="382" r="2" fill="#EF9F27" opacity="0.26"/><circle cx="244" cy="378" r="2" fill="#FAC775" opacity="0.28"/><circle cx="264" cy="382" r="2" fill="#EF9F27" opacity="0.26"/><circle cx="280" cy="394" r="2" fill="#FAC775" opacity="0.28"/><circle cx="288" cy="412" r="2" fill="#EF9F27" opacity="0.26"/><circle cx="286" cy="430" r="2" fill="#FAC775" opacity="0.28"/><circle cx="274" cy="448" r="2" fill="#EF9F27" opacity="0.26"/><circle cx="252" cy="456" r="2" fill="#FAC775" opacity="0.28"/><circle cx="228" cy="452" r="2" fill="#EF9F27" opacity="0.26"/><circle cx="208" cy="440" r="2" fill="#FAC775" opacity="0.28"/><circle cx="196" cy="422" r="2" fill="#EF9F27" opacity="0.26"/><circle cx="200" cy="402" r="2" fill="#FAC775" opacity="0.26"/>
    <circle cx="216" cy="396" r="2.2" fill="#FAC775" opacity="0.4"/><circle cx="228" cy="388" r="2.2" fill="#EF9F27" opacity="0.42"/><circle cx="244" cy="386" r="2.2" fill="#FAC775" opacity="0.4"/><circle cx="260" cy="390" r="2.2" fill="#EF9F27" opacity="0.42"/><circle cx="272" cy="400" r="2.2" fill="#FAC775" opacity="0.4"/><circle cx="278" cy="414" r="2.2" fill="#EF9F27" opacity="0.42"/><circle cx="276" cy="428" r="2.2" fill="#FAC775" opacity="0.4"/><circle cx="267" cy="440" r="2.2" fill="#EF9F27" opacity="0.42"/><circle cx="250" cy="446" r="2.2" fill="#FAC775" opacity="0.4"/><circle cx="232" cy="442" r="2.2" fill="#EF9F27" opacity="0.42"/><circle cx="218" cy="432" r="2.2" fill="#FAC775" opacity="0.4"/><circle cx="212" cy="418" r="2.2" fill="#EF9F27" opacity="0.42"/><circle cx="214" cy="403" r="2.2" fill="#FAC775" opacity="0.4"/>
    <circle cx="228" cy="401" r="2.5" fill="#FAC775" opacity="0.56"/><circle cx="238" cy="395" r="2.5" fill="#EF9F27" opacity="0.58"/><circle cx="250" cy="395" r="2.5" fill="#FAC775" opacity="0.56"/><circle cx="262" cy="399" r="2.5" fill="#EF9F27" opacity="0.58"/><circle cx="270" cy="409" r="2.5" fill="#FAC775" opacity="0.56"/><circle cx="271" cy="421" r="2.5" fill="#EF9F27" opacity="0.58"/><circle cx="265" cy="433" r="2.5" fill="#FAC775" opacity="0.56"/><circle cx="252" cy="439" r="2.5" fill="#EF9F27" opacity="0.58"/><circle cx="237" cy="436" r="2.5" fill="#FAC775" opacity="0.56"/><circle cx="226" cy="428" r="2.5" fill="#EF9F27" opacity="0.58"/><circle cx="222" cy="416" r="2.5" fill="#FAC775" opacity="0.56"/><circle cx="225" cy="404" r="2.5" fill="#EF9F27" opacity="0.56"/>
    <circle cx="236" cy="408" r="3.2" fill="#FAC775" opacity="0.92"/><circle cx="248" cy="405" r="3.5" fill="#EF9F27" opacity="0.95"/><circle cx="260" cy="410" r="3.2" fill="#FAC775" opacity="0.92"/><circle cx="266" cy="420" r="3.2" fill="#EF9F27" opacity="0.92"/><circle cx="261" cy="431" r="3.5" fill="#FAC775" opacity="0.95"/><circle cx="250" cy="437" r="3.2" fill="#EF9F27" opacity="0.92"/><circle cx="238" cy="432" r="3.2" fill="#FAC775" opacity="0.92"/><circle cx="231" cy="422" r="3.5" fill="#EF9F27" opacity="0.95"/><circle cx="233" cy="411" r="3.2" fill="#FAC775" opacity="0.92"/><circle cx="244" cy="416" r="3" fill="#EF9F27" opacity="0.95"/><circle cx="252" cy="421" r="3.5" fill="#FAC775" opacity="0.98"/><circle cx="258" cy="415" r="3" fill="#EF9F27" opacity="0.95"/>

    <!-- TENDRILS -->
    <circle cx="318" cy="216" r="2" fill="#4da85a" opacity="0.45"/><circle cx="308" cy="226" r="2" fill="#4da85a" opacity="0.42"/><circle cx="296" cy="236" r="2" fill="#5a6ab8" opacity="0.4"/><circle cx="282" cy="246" r="2" fill="#5a6ab8" opacity="0.4"/><circle cx="268" cy="256" r="2" fill="#6a68cc" opacity="0.42"/><circle cx="254" cy="264" r="2" fill="#6a68cc" opacity="0.42"/><circle cx="238" cy="270" r="2" fill="#7060d0" opacity="0.42"/><circle cx="222" cy="276" r="2" fill="#7060d0" opacity="0.42"/><circle cx="208" cy="280" r="2" fill="#7f77dd" opacity="0.45"/><circle cx="196" cy="283" r="2" fill="#7f77dd" opacity="0.45"/>
    <circle cx="200" cy="326" r="2" fill="#534AB7" opacity="0.42"/><circle cx="212" cy="340" r="2" fill="#4a7aaa" opacity="0.4"/><circle cx="226" cy="352" r="2" fill="#4a7aaa" opacity="0.4"/><circle cx="242" cy="362" r="2" fill="#2a9e90" opacity="0.42"/><circle cx="260" cy="370" r="2" fill="#2a9e90" opacity="0.42"/><circle cx="278" cy="375" r="2" fill="#1D9E75" opacity="0.45"/><circle cx="298" cy="378" r="2" fill="#1D9E75" opacity="0.45"/><circle cx="318" cy="379" r="2" fill="#5DCAA5" opacity="0.45"/><circle cx="336" cy="379" r="2" fill="#5DCAA5" opacity="0.42"/>
    <circle cx="318" cy="226" r="1.8" fill="#3dbd52" opacity="0.35"/><circle cx="304" cy="246" r="1.8" fill="#6a8830" opacity="0.32"/><circle cx="292" cy="268" r="1.8" fill="#8a8830" opacity="0.32"/><circle cx="280" cy="292" r="1.8" fill="#aa8830" opacity="0.32"/><circle cx="272" cy="316" r="1.8" fill="#cc9830" opacity="0.34"/><circle cx="264" cy="340" r="1.8" fill="#EF9F27" opacity="0.35"/><circle cx="258" cy="364" r="1.8" fill="#FAC775" opacity="0.35"/><circle cx="254" cy="390" r="1.8" fill="#FAC775" opacity="0.38"/>
    <circle cx="196" cy="332" r="1.8" fill="#534AB7" opacity="0.36"/><circle cx="204" cy="352" r="1.8" fill="#6a50a0" opacity="0.34"/><circle cx="212" cy="372" r="1.8" fill="#8a6860" opacity="0.32"/><circle cx="220" cy="390" r="1.8" fill="#aa8840" opacity="0.34"/><circle cx="228" cy="408" r="1.8" fill="#EF9F27" opacity="0.36"/>
    <circle cx="334" cy="404" r="1.8" fill="#1D9E75" opacity="0.36"/><circle cx="318" cy="410" r="1.8" fill="#4a9e70" opacity="0.34"/><circle cx="302" cy="414" r="1.8" fill="#7a9e50" opacity="0.32"/><circle cx="286" cy="416" r="1.8" fill="#aa9e30" opacity="0.32"/><circle cx="270" cy="418" r="1.8" fill="#FAC775" opacity="0.35"/>
    <circle cx="382" cy="234" r="1.8" fill="#39b54a" opacity="0.34"/><circle cx="400" cy="266" r="1.8" fill="#2aaa70" opacity="0.32"/><circle cx="410" cy="302" r="1.8" fill="#1D9E75" opacity="0.34"/><circle cx="412" cy="338" r="1.8" fill="#5DCAA5" opacity="0.35"/>

    <!-- Scatter noise -->
    <circle cx="254" cy="174" r="1.8" fill="#39b54a" opacity="0.22"/><circle cx="270" cy="200" r="1.8" fill="#56c967" opacity="0.2"/><circle cx="430" cy="240" r="1.8" fill="#5DCAA5" opacity="0.2"/><circle cx="440" cy="280" r="1.8" fill="#1D9E75" opacity="0.2"/><circle cx="432" cy="316" r="1.8" fill="#39b54a" opacity="0.2"/><circle cx="78" cy="220" r="1.8" fill="#7f77dd" opacity="0.2"/><circle cx="68" cy="260" r="1.8" fill="#534AB7" opacity="0.2"/><circle cx="70" cy="340" r="1.8" fill="#534AB7" opacity="0.2"/><circle cx="78" cy="380" r="1.8" fill="#EF9F27" opacity="0.2"/><circle cx="196" cy="178" r="1.8" fill="#534AB7" opacity="0.2"/><circle cx="420" cy="168" r="1.8" fill="#39b54a" opacity="0.2"/><circle cx="108" cy="172" r="1.8" fill="#7f77dd" opacity="0.2"/><circle cx="160" cy="164" r="1.8" fill="#534AB7" opacity="0.2"/><circle cx="436" cy="436" r="1.8" fill="#5DCAA5" opacity="0.2"/>

    <!-- Legend -->
    <text font-family="monospace" font-size="7.5" fill="#aaa" opacity="0.7" x="55" y="163">increments</text>
    <circle cx="66" cy="174" r="5.5" fill="none" stroke="#fff" stroke-width="0.7" stroke-dasharray="2 4" opacity="0.22"/>
    <text font-family="monospace" font-size="6.5" fill="#777" opacity="0.6" x="76" y="177">5k</text>
    <circle cx="66" cy="189" r="5.5" fill="none" stroke="#fff" stroke-width="0.8" stroke-dasharray="2 3" opacity="0.32"/>
    <text font-family="monospace" font-size="6.5" fill="#888" opacity="0.65" x="76" y="192">10k</text>
    <circle cx="66" cy="204" r="5.5" fill="none" stroke="#fff" stroke-width="1.1" stroke-dasharray="1 2" opacity="0.44"/>
    <text font-family="monospace" font-size="6.5" fill="#999" opacity="0.7" x="76" y="207">25k</text>
    <circle cx="66" cy="219" r="5.5" fill="#1a1a30" opacity="0.7"/>
    <circle cx="66" cy="219" r="5.5" fill="none" stroke="#fff" stroke-width="1.3" opacity="0.8"/>
    <circle cx="66" cy="219" r="2.5" fill="#fff" opacity="0.8"/>
    <text font-family="monospace" font-size="6.5" fill="#ccc" opacity="0.85" x="76" y="222">50k</text>
    <text font-family="monospace" font-size="7.5" fill="#aaa" opacity="0.65" x="55" y="245">phenotypes</text>
    <circle cx="63" cy="256" r="4.5" fill="#39b54a" opacity="0.9"/><text font-family="monospace" font-size="6.5" fill="#56c967" opacity="0.75" x="72" y="259">CCR7-hi</text>
    <circle cx="63" cy="270" r="4.5" fill="#534AB7" opacity="0.9"/><text font-family="monospace" font-size="6.5" fill="#7f77dd" opacity="0.75" x="72" y="273">CCR7-lo</text>
    <circle cx="63" cy="284" r="4.5" fill="#1D9E75" opacity="0.9"/><text font-family="monospace" font-size="6.5" fill="#5DCAA5" opacity="0.75" x="72" y="287">CCR7-mid</text>
    <circle cx="63" cy="298" r="4.5" fill="#EF9F27" opacity="0.9"/><text font-family="monospace" font-size="6.5" fill="#FAC775" opacity="0.75" x="72" y="301">CCR7-neg</text>
    <text font-family="monospace" font-size="6.5" fill="#7f77dd" opacity="0.4" text-anchor="middle" x="250" y="462">no reinit · stable topology · parametric</text>

  </g>

  <polygon points="250,30 455,145 455,375 250,490 45,375 45,145" fill="none" stroke="#534AB7" stroke-width="11" stroke-linejoin="round"/>
  <polygon points="250,44 441,153 441,367 250,476 59,367 59,153" fill="none" stroke="#3C3489" stroke-width="1.5" stroke-linejoin="round" opacity="0.7"/>
  <text font-family="monospace" font-weight="700" font-size="28" fill="#CECBF6" text-anchor="middle" x="250" y="545" letter-spacing="1">songR</text>
</svg>
